<svg width="385" height="38" viewBox="0 0 385 38" fill="none" xmlns="http://www.w3.org/2000/svg">
<path d="M11.064 24.28H7.992V37H0.12V3.736H11.016C15.56 3.736 18.968 4.568 21.24 6.232C23.544 7.896 24.696 10.44 24.696 13.864C24.696 16.008 24.184 17.8 23.16 19.24C22.136 20.648 20.52 21.848 18.312 22.84L26.76 37H17.88L11.064 24.28ZM7.992 18.856H11.304C13.064 18.856 14.376 18.456 15.24 17.656C16.136 16.856 16.584 15.592 16.584 13.864C16.584 12.264 16.104 11.096 15.144 10.36C14.216 9.624 12.776 9.256 10.824 9.256H7.992V18.856ZM49.3883 29.608C49.3883 30.568 49.5163 31.272 49.7723 31.72C50.0603 32.168 50.5083 32.504 51.1163 32.728L49.5323 37.672C47.9643 37.544 46.6843 37.208 45.6923 36.664C44.7003 36.088 43.9323 35.192 43.3883 33.976C41.7243 36.536 39.1643 37.816 35.7083 37.816C33.1803 37.816 31.1643 37.08 29.6603 35.608C28.1563 34.136 27.4043 32.216 27.4043 29.848C27.4043 27.064 28.4283 24.936 30.4763 23.464C32.5243 21.992 35.4843 21.256 39.3563 21.256H41.9483V20.152C41.9483 18.648 41.6283 17.624 40.9883 17.08C40.3483 16.504 39.2283 16.216 37.6283 16.216C36.7963 16.216 35.7883 16.344 34.6043 16.6C33.4203 16.824 32.2043 17.144 30.9563 17.56L29.2283 12.568C30.8283 11.96 32.4603 11.496 34.1243 11.176C35.8203 10.856 37.3883 10.696 38.8282 10.696C42.4763 10.696 45.1483 11.448 46.8443 12.952C48.5403 14.456 49.3883 16.712 49.3883 19.72V29.608ZM37.9163 32.392C39.6443 32.392 40.9883 31.576 41.9483 29.944V25.432H40.0763C38.3483 25.432 37.0523 25.736 36.1883 26.344C35.3563 26.952 34.9403 27.896 34.9403 29.176C34.9403 30.2 35.1963 31 35.7083 31.576C36.2523 32.12 36.9883 32.392 37.9163 32.392ZM67.0931 6.184C66.0051 6.184 65.2211 6.44 64.7411 6.952C64.2611 7.464 64.0211 8.328 64.0211 9.544V11.512H70.0211L69.2051 16.792H64.0211V37H56.4371V16.792H52.5971V11.512H56.4371V9.256C56.4371 6.696 57.2691 4.616 58.9331 3.016C60.6291 1.384 63.0451 0.567997 66.1811 0.567997C68.7091 0.567997 71.0291 1.112 73.1411 2.2L71.0771 7.144C69.7971 6.504 68.4691 6.184 67.0931 6.184ZM91.6226 29.608C91.6226 30.568 91.7506 31.272 92.0066 31.72C92.2946 32.168 92.7426 32.504 93.3506 32.728L91.7666 37.672C90.1986 37.544 88.9186 37.208 87.9266 36.664C86.9346 36.088 86.1666 35.192 85.6226 33.976C83.9586 36.536 81.3986 37.816 77.9426 37.816C75.4146 37.816 73.3986 37.08 71.8946 35.608C70.3906 34.136 69.6386 32.216 69.6386 29.848C69.6386 27.064 70.6626 24.936 72.7106 23.464C74.7586 21.992 77.7186 21.256 81.5906 21.256H84.1826V20.152C84.1826 18.648 83.8626 17.624 83.2226 17.08C82.5826 16.504 81.4626 16.216 79.8626 16.216C79.0306 16.216 78.0226 16.344 76.8386 16.6C75.6546 16.824 74.4386 17.144 73.1906 17.56L71.4626 12.568C73.0626 11.96 74.6946 11.496 76.3586 11.176C78.0546 10.856 79.6226 10.696 81.0626 10.696C84.7106 10.696 87.3826 11.448 89.0786 12.952C90.7746 14.456 91.6226 16.712 91.6226 19.72V29.608ZM80.1506 32.392C81.8786 32.392 83.2226 31.576 84.1826 29.944V25.432H82.3106C80.5826 25.432 79.2866 25.736 78.4226 26.344C77.5906 26.952 77.1746 27.896 77.1746 29.176C77.1746 30.2 77.4306 31 77.9426 31.576C78.4866 32.12 79.2226 32.392 80.1506 32.392ZM119.888 23.752C119.888 24.808 119.84 25.72 119.744 26.488H103.952C104.208 28.632 104.816 30.136 105.776 31C106.736 31.864 108.064 32.296 109.76 32.296C110.784 32.296 111.776 32.12 112.736 31.768C113.696 31.384 114.736 30.808 115.856 30.04L118.976 34.264C116 36.632 112.688 37.816 109.04 37.816C104.912 37.816 101.744 36.6 99.5355 34.168C97.3275 31.736 96.2235 28.472 96.2235 24.376C96.2235 21.784 96.6875 19.464 97.6155 17.416C98.5435 15.336 99.9035 13.704 101.696 12.52C103.488 11.304 105.632 10.696 108.128 10.696C111.808 10.696 114.688 11.848 116.768 14.152C118.848 16.456 119.888 19.656 119.888 23.752ZM112.448 21.592C112.384 17.688 111.008 15.736 108.32 15.736C107.008 15.736 105.984 16.216 105.248 17.176C104.544 18.136 104.112 19.72 103.952 21.928H112.448V21.592ZM130.916 37.816C128.708 37.816 126.98 37.192 125.732 35.944C124.516 34.664 123.908 32.856 123.908 30.52V1.384L131.492 0.567997V30.232C131.492 31.288 131.924 31.816 132.788 31.816C133.236 31.816 133.652 31.736 134.036 31.576L135.524 36.952C134.148 37.528 132.612 37.816 130.916 37.816ZM172.685 3.736L171.917 9.784H163.709V37H155.837V9.784H147.245V3.736H172.685ZM195.117 3.736V37H187.245V3.736H195.117ZM214.221 3.736L203.613 18.664L215.085 37H205.965L195.357 19.24L205.917 3.736H214.221ZM262.035 37H254.307L253.731 23.992C253.571 20.888 253.491 18.12 253.491 15.688C253.491 13.832 253.539 12.072 253.635 10.408L248.499 33.496H241.059L235.587 10.408C235.779 13.192 235.875 15.816 235.875 18.28C235.875 20.136 235.827 22.072 235.731 24.088L235.155 37H227.475L229.971 3.736H239.907L244.899 26.296L249.555 3.736H259.539L262.035 37ZM277.641 10.696C281.545 10.696 284.601 11.896 286.809 14.296C289.017 16.664 290.121 19.992 290.121 24.28C290.121 27 289.609 29.384 288.585 31.432C287.593 33.448 286.153 35.016 284.265 36.136C282.409 37.256 280.201 37.816 277.641 37.816C273.769 37.816 270.713 36.632 268.473 34.264C266.265 31.864 265.161 28.52 265.161 24.232C265.161 21.512 265.657 19.144 266.649 17.128C267.673 15.08 269.113 13.496 270.969 12.376C272.857 11.256 275.081 10.696 277.641 10.696ZM277.641 16.264C276.105 16.264 274.953 16.92 274.185 18.232C273.417 19.512 273.033 21.512 273.033 24.232C273.033 27.016 273.401 29.048 274.137 30.328C274.905 31.608 276.073 32.248 277.641 32.248C279.177 32.248 280.329 31.608 281.097 30.328C281.865 29.016 282.249 27 282.249 24.28C282.249 21.496 281.865 19.464 281.097 18.184C280.361 16.904 279.209 16.264 277.641 16.264ZM308.456 10.792C309.384 10.792 310.232 10.904 311 11.128L309.8 18.472C308.84 18.248 308.072 18.136 307.496 18.136C305.992 18.136 304.84 18.664 304.04 19.72C303.272 20.744 302.664 22.296 302.216 24.376V37H294.632V11.512H301.256L301.88 16.456C302.456 14.696 303.32 13.32 304.472 12.328C305.656 11.304 306.984 10.792 308.456 10.792ZM332.466 29.608C332.466 30.568 332.594 31.272 332.85 31.72C333.138 32.168 333.586 32.504 334.194 32.728L332.61 37.672C331.042 37.544 329.762 37.208 328.77 36.664C327.778 36.088 327.01 35.192 326.466 33.976C324.802 36.536 322.242 37.816 318.786 37.816C316.258 37.816 314.242 37.08 312.738 35.608C311.234 34.136 310.482 32.216 310.482 29.848C310.482 27.064 311.506 24.936 313.554 23.464C315.602 21.992 318.562 21.256 322.434 21.256H325.026V20.152C325.026 18.648 324.706 17.624 324.066 17.08C323.426 16.504 322.306 16.216 320.706 16.216C319.874 16.216 318.866 16.344 317.682 16.6C316.498 16.824 315.282 17.144 314.034 17.56L312.306 12.568C313.906 11.96 315.538 11.496 317.202 11.176C318.898 10.856 320.466 10.696 321.906 10.696C325.554 10.696 328.226 11.448 329.922 12.952C331.618 14.456 332.466 16.712 332.466 19.72V29.608ZM320.994 32.392C322.722 32.392 324.066 31.576 325.026 29.944V25.432H323.154C321.426 25.432 320.13 25.736 319.266 26.344C318.434 26.952 318.018 27.896 318.018 29.176C318.018 30.2 318.274 31 318.786 31.576C319.33 32.12 320.066 32.392 320.994 32.392ZM360.731 23.752C360.731 24.808 360.683 25.72 360.587 26.488H344.795C345.051 28.632 345.659 30.136 346.619 31C347.579 31.864 348.907 32.296 350.603 32.296C351.627 32.296 352.619 32.12 353.579 31.768C354.539 31.384 355.579 30.808 356.699 30.04L359.819 34.264C356.843 36.632 353.531 37.816 349.883 37.816C345.755 37.816 342.587 36.6 340.379 34.168C338.171 31.736 337.067 28.472 337.067 24.376C337.067 21.784 337.531 19.464 338.459 17.416C339.387 15.336 340.747 13.704 342.539 12.52C344.331 11.304 346.475 10.696 348.971 10.696C352.651 10.696 355.531 11.848 357.611 14.152C359.691 16.456 360.731 19.656 360.731 23.752ZM353.291 21.592C353.227 17.688 351.851 15.736 349.163 15.736C347.851 15.736 346.827 16.216 346.091 17.176C345.387 18.136 344.955 19.72 344.795 21.928H353.291V21.592ZM373.968 10.696C375.792 10.696 377.504 10.968 379.104 11.512C380.704 12.056 382.112 12.824 383.328 13.816L380.544 18.088C378.464 16.776 376.368 16.12 374.256 16.12C373.264 16.12 372.496 16.296 371.952 16.648C371.44 16.968 371.184 17.432 371.184 18.04C371.184 18.52 371.296 18.92 371.52 19.24C371.776 19.528 372.272 19.832 373.008 20.152C373.744 20.472 374.88 20.856 376.416 21.304C379.072 22.072 381.04 23.08 382.32 24.328C383.632 25.544 384.288 27.24 384.288 29.416C384.288 31.144 383.792 32.648 382.8 33.928C381.808 35.176 380.448 36.136 378.72 36.808C376.992 37.48 375.072 37.816 372.96 37.816C370.816 37.816 368.816 37.48 366.96 36.808C365.136 36.136 363.584 35.208 362.304 34.024L366 29.896C368.144 31.56 370.4 32.392 372.768 32.392C373.92 32.392 374.816 32.184 375.456 31.768C376.128 31.352 376.464 30.76 376.464 29.992C376.464 29.384 376.336 28.904 376.08 28.552C375.824 28.2 375.328 27.88 374.592 27.592C373.856 27.272 372.688 26.888 371.088 26.44C368.56 25.704 366.672 24.68 365.424 23.368C364.176 22.056 363.552 20.424 363.552 18.472C363.552 17 363.968 15.688 364.8 14.536C365.664 13.352 366.88 12.424 368.448 11.752C370.048 11.048 371.888 10.696 373.968 10.696Z" fill="#141414"/>
</svg>
